<?xml version="1.0" encoding="utf-8"?>
<svg xmlns='http://www.w3.org/2000/svg' xmlns:xlink='http://www.w3.org/1999/xlink' height='684' width='452'>
<style type="text/css">
	.st0{fill:none;}
	.st1{fill:none;stroke:#EEFFEE;stroke-width:3; opacity:0.5;}
</style>
<!--rect x="0" y="-0.2" class="st0" width="452" height="684"/-->
  <defs>
            <radialGradient id='asphaltGradient' r='1'>
                <stop offset='0%' stop-color='#6899B7'/>
                <stop offset='100%' stop-color='#4a748c'/>
            </radialGradient>
        </defs>
        <rect x="0" y="-0.2" height='684' width='452' fill='url(#asphaltGradient)'/>
<path class="st1" d="M11.2,22.6v638.8h429.6V22.6L11.2,22.6z"/>
<path class="st1" d="M11.3,342h429.4"/>
<circle class="st1" cx="226" cy="342" r="54.8"/>
<circle class="st1" cx="226" cy="342" r="2"/>
<path class="st1" d="M9.9,30.1c4.9,0,8.8-4,8.8-8.9"/>
<polyline class="st1" points="193.1,22.5 193.1,6.9 259,6.9 259,22.5 "/>
<path class="st1" d="M442.1,30c-4.9,0-8.8-4-8.8-8.9"/>
<circle class="st1" cx="226" cy="120.2" r="2"/>
<circle class="st1" cx="226" cy="189.5" r="2"/>
<line class="st1" x1="142.3" y1="16.7" x2="142.3" y2="33"/>
<line class="st1" x1="316.2" y1="16.7" x2="316.2" y2="33"/>
<line class="st1" x1="449.2" y1="189.5" x2="432.9" y2="189.5"/>
<line class="st1" x1="449.2" y1="287.2" x2="432.9" y2="287.2"/>
<line class="st1" x1="20" y1="189.5" x2="3.7" y2="189.5"/>
<line class="st1" x1="20" y1="287.2" x2="3.7" y2="287.2"/>
<path class="st1" d="M443.1,654.3c-4.8,0-8.8,4-8.8,8.9"/>
<polyline class="st1" points="259,661.8 259,677.4 193.1,677.4 193.1,661.8 "/>
<path class="st1" d="M10.8,654.3c4.9,0,8.8,4,8.8,8.9"/>
<circle class="st1" cx="226" cy="563.2" r="2"/>
<circle class="st1" cx="226" cy="494.8" r="2"/>
<line class="st1" x1="310.7" y1="667.6" x2="310.7" y2="651.3"/>
<line class="st1" x1="136.8" y1="667.6" x2="136.8" y2="651.3"/>
<line class="st1" x1="3.7" y1="494.8" x2="20" y2="494.8"/>
<line class="st1" x1="3.7" y1="397.2" x2="20" y2="397.2"/>
<line class="st1" x1="432.9" y1="494.8" x2="449.2" y2="494.8"/>
<line class="st1" x1="432.9" y1="397.2" x2="449.2" y2="397.2"/>
<path class="st1" d="M108.7,663.3c0-55.3,52.5-100.1,117.4-100.1S343.4,608,343.4,663.3"/>
<path class="st1" d="M343.4,20c0,55.3-52.5,100.1-117.4,100.1S108.7,75.2,108.7,20"/>
</svg>